<svg data-v-423bf9ae="" xmlns="http://www.w3.org/2000/svg" viewBox="0 0 256.15793078883195 60" class="font"><!----><!----><defs data-v-423bf9ae=""><linearGradient data-v-423bf9ae="" gradientTransform="rotate(25)" id="67b8697d-3d57-4545-a290-018354ae8280" x1="0%" y1="0%" x2="100%" y2="0%"><stop data-v-423bf9ae="" offset="0%" style="stop-color: rgb(45, 49, 146); stop-opacity: 1;"></stop><stop data-v-423bf9ae="" offset="100%" style="stop-color: rgb(45, 49, 146); stop-opacity: 1;"></stop></linearGradient></defs><g data-v-423bf9ae="" id="f36f1ab3-15a2-44b6-b9f9-20aeff868725" fill="url(#67b8697d-3d57-4545-a290-018354ae8280)" transform="matrix(4.788411617279053,0,0,4.788411617279053,-3.3518872261047363,-17.811689376831055)"><path d="M2.48 3.72L2.48 9.37L4.00 7.67L4.00 7.67Q4.47 7.15 4.91 6.83L4.91 6.83L4.91 6.83Q5.36 6.51 5.99 6.47L5.99 6.47L5.99 6.47Q6.30 6.45 6.58 6.52L6.58 6.52L6.58 6.52Q6.86 6.58 7.04 6.74L7.04 6.74L7.04 6.74Q7.22 6.90 7.28 7.15L7.28 7.15L7.28 7.15Q7.34 7.39 7.21 7.74L7.21 7.74L7.21 7.74Q7.15 7.64 7.01 7.61L7.01 7.61L7.01 7.61Q6.86 7.57 6.66 7.62L6.66 7.62L6.66 7.62Q6.45 7.66 6.22 7.79L6.22 7.79L6.22 7.79Q5.98 7.92 5.75 8.19L5.75 8.19L4.27 9.83L7.69 13.52L5.47 13.52L2.48 10.26L2.48 13.52L0.70 13.52L0.70 5.15L0.70 5.15Q0.70 4.48 1.18 4.10L1.18 4.10L1.18 4.10Q1.67 3.71 2.48 3.72L2.48 3.72ZM11.61 6.10L11.61 6.10L11.61 6.10Q12.71 6.10 13.57 6.64L13.57 6.64L13.57 6.64Q14.43 7.17 14.92 7.99L14.92 7.99L14.92 7.99Q15.41 8.82 15.45 9.83L15.45 9.83L15.45 9.83Q15.48 10.84 14.94 11.80L14.94 11.80L14.94 11.80Q14.48 12.60 13.73 13.08L13.73 13.08L13.73 13.08Q12.99 13.55 12.15 13.67L12.15 13.67L12.15 13.67Q11.31 13.79 10.46 13.53L10.46 13.53L10.46 13.53Q9.62 13.27 8.95 12.60L8.95 12.60L8.95 12.60Q8.19 11.83 7.94 10.82L7.94 10.82L7.94 10.82Q7.69 9.81 7.98 8.81L7.98 8.81L7.98 8.81Q8.11 8.40 8.39 8.13L8.39 8.13L8.39 8.13Q8.68 7.87 9.04 7.74L9.04 7.74L9.04 7.74Q9.41 7.62 9.80 7.63L9.80 7.63L9.80 7.63Q10.19 7.64 10.53 7.79L10.53 7.79L10.53 7.79Q10.86 7.94 11.10 8.21L11.10 8.21L11.10 8.21Q11.33 8.48 11.37 8.88L11.37 8.88L11.37 8.88Q11.16 8.72 10.86 8.71L10.86 8.71L10.86 8.71Q10.57 8.71 10.30 8.84L10.30 8.84L10.30 8.84Q10.02 8.97 9.84 9.25L9.84 9.25L9.84 9.25Q9.65 9.52 9.65 9.93L9.65 9.93L9.65 9.93Q9.65 10.63 9.94 11.09L9.94 11.09L9.94 11.09Q10.23 11.55 10.68 11.78L10.68 11.78L10.68 11.78Q11.12 12.01 11.63 12.01L11.63 12.01L11.63 12.01Q12.14 12.01 12.58 11.77L12.58 11.77L12.58 11.77Q13.02 11.54 13.31 11.07L13.31 11.07L13.31 11.07Q13.61 10.60 13.61 9.90L13.61 9.90L13.61 9.90Q13.61 9.35 13.41 8.93L13.41 8.93L13.41 8.93Q13.22 8.51 12.89 8.24L12.89 8.24L12.89 8.24Q12.56 7.97 12.12 7.86L12.12 7.86L12.12 7.86Q11.69 7.76 11.20 7.85L11.20 7.85L11.20 7.85Q10.99 7.60 10.69 7.46L10.69 7.46L10.69 7.46Q10.39 7.31 10.04 7.26L10.04 7.26L10.04 7.26Q9.69 7.21 9.34 7.27L9.34 7.27L9.34 7.27Q8.99 7.34 8.68 7.52L8.68 7.52L8.68 7.52Q9.24 6.85 9.98 6.48L9.98 6.48L9.98 6.48Q10.72 6.10 11.61 6.10ZM20.17 8.50L20.17 8.50L20.17 8.50Q20.06 8.23 19.87 8.07L19.87 8.07L19.87 8.07Q19.67 7.91 19.44 7.83L19.44 7.83L19.44 7.83Q19.21 7.74 18.99 7.74L18.99 7.74L18.99 7.74Q18.77 7.73 18.63 7.78L18.63 7.78L18.63 7.78Q18.38 7.87 18.30 8.07L18.30 8.07L18.30 8.07Q18.23 8.27 18.38 8.46L18.38 8.46L18.38 8.46Q18.51 8.60 18.78 8.73L18.78 8.73L18.78 8.73Q19.05 8.86 19.39 9.02L19.39 9.02L19.39 9.02Q19.73 9.18 20.08 9.39L20.08 9.39L20.08 9.39Q20.44 9.59 20.73 9.87L20.73 9.87L20.73 9.87Q21.03 10.15 21.22 10.53L21.22 10.53L21.22 10.53Q21.41 10.91 21.41 11.42L21.41 11.42L21.41 11.42Q21.41 12.03 21.14 12.48L21.14 12.48L21.14 12.48Q20.87 12.94 20.43 13.22L20.43 13.22L20.43 13.22Q19.99 13.50 19.44 13.60L19.44 13.60L19.44 13.60Q18.89 13.71 18.32 13.62L18.32 13.62L18.32 13.62Q17.75 13.54 17.22 13.24L17.22 13.24L17.22 13.24Q16.69 12.94 16.30 12.42L16.30 12.42L17.42 11.21L17.42 11.21Q17.77 11.63 18.15 11.82L18.15 11.82L18.15 11.82Q18.54 12.00 18.87 12.02L18.87 12.02L18.87 12.02Q19.19 12.04 19.42 11.92L19.42 11.92L19.42 11.92Q19.64 11.80 19.69 11.60L19.69 11.60L19.69 11.60Q19.74 11.40 19.57 11.15L19.57 11.15L19.57 11.15Q19.40 10.91 18.93 10.67L18.93 10.67L18.93 10.67Q18.48 10.44 18.05 10.21L18.05 10.21L18.05 10.21Q17.63 9.97 17.30 9.67L17.30 9.67L17.30 9.67Q16.97 9.38 16.77 9.02L16.77 9.02L16.77 9.02Q16.56 8.65 16.56 8.16L16.56 8.16L16.56 8.16Q16.56 7.66 16.77 7.27L16.77 7.27L16.77 7.27Q16.98 6.87 17.33 6.61L17.33 6.61L17.33 6.61Q17.68 6.34 18.13 6.22L18.13 6.22L18.13 6.22Q18.58 6.09 19.05 6.10L19.05 6.10L19.05 6.10Q19.87 6.15 20.29 6.46L20.29 6.46L20.29 6.46Q20.72 6.78 20.83 7.18L20.83 7.18L20.83 7.18Q20.93 7.57 20.76 7.95L20.76 7.95L20.76 7.95Q20.58 8.33 20.17 8.50ZM24.33 6.29L24.33 7.07L24.33 7.07Q24.85 6.55 25.47 6.31L25.47 6.31L25.47 6.31Q26.10 6.08 26.73 6.10L26.73 6.10L26.73 6.10Q27.36 6.13 27.94 6.40L27.94 6.40L27.94 6.40Q28.53 6.66 28.98 7.15L28.98 7.15L28.98 7.15Q29.43 7.64 29.70 8.34L29.70 8.34L29.70 8.34Q29.97 9.03 29.97 9.90L29.97 9.90L29.97 9.90Q29.97 10.74 29.68 11.44L29.68 11.44L29.68 11.44Q29.39 12.14 28.90 12.64L28.90 12.64L28.90 12.64Q28.41 13.15 27.77 13.42L27.77 13.42L27.77 13.42Q27.13 13.69 26.46 13.66L26.46 13.66L26.46 13.66Q25.76 13.64 25.35 13.36L25.35 13.36L25.35 13.36Q24.95 13.09 24.77 12.73L24.77 12.73L24.77 12.73Q24.58 12.38 24.58 12.01L24.58 12.01L24.58 12.01Q24.58 11.63 24.71 11.41L24.71 11.41L24.71 11.41Q24.84 11.58 25.01 11.70L25.01 11.70L25.01 11.70Q25.19 11.82 25.39 11.88L25.39 11.88L25.39 11.88Q25.59 11.94 25.81 11.97L25.81 11.97L25.81 11.97Q26.03 12.00 26.22 12.00L26.22 12.00L26.22 12.00Q26.87 12.00 27.30 11.68L27.30 11.68L27.30 11.68Q27.73 11.37 27.95 10.90L27.95 10.90L27.95 10.90Q28.17 10.43 28.17 9.88L28.17 9.88L28.17 9.88Q28.17 9.32 27.96 8.86L27.96 8.86L27.96 8.86Q27.75 8.39 27.31 8.07L27.31 8.07L27.31 8.07Q26.88 7.76 26.22 7.76L26.22 7.76L26.22 7.76Q25.68 7.76 25.31 8.01L25.31 8.01L25.31 8.01Q24.95 8.26 24.73 8.66L24.73 8.66L24.73 8.66Q24.51 9.06 24.42 9.55L24.42 9.55L24.42 9.55Q24.33 10.04 24.33 10.53L24.33 10.53L24.33 16.25L22.53 16.25L22.53 7.74L22.53 7.74Q22.53 7.38 22.67 7.10L22.67 7.10L22.67 7.10Q22.82 6.82 23.07 6.63L23.07 6.63L23.07 6.63Q23.32 6.44 23.65 6.36L23.65 6.36L23.65 6.36Q23.97 6.27 24.33 6.29L24.33 6.29ZM36.50 13.52L36.50 12.73L36.50 12.73Q35.97 13.24 35.34 13.48L35.34 13.48L35.34 13.48Q34.72 13.72 34.09 13.70L34.09 13.70L34.09 13.70Q33.46 13.68 32.86 13.41L32.86 13.41L32.86 13.41Q32.27 13.15 31.81 12.65L31.81 12.65L31.81 12.65Q31.36 12.15 31.09 11.46L31.09 11.46L31.09 11.46Q30.81 10.77 30.81 9.88L30.81 9.88L30.81 9.88Q30.81 9.04 31.11 8.33L31.11 8.33L31.11 8.33Q31.40 7.62 31.90 7.11L31.90 7.11L31.90 7.11Q32.40 6.61 33.03 6.34L33.03 6.34L33.03 6.34Q33.67 6.06 34.36 6.09L34.36 6.09L34.36 6.09Q35.03 6.12 35.43 6.39L35.43 6.39L35.43 6.39Q35.84 6.66 36.03 7.03L36.03 7.03L36.03 7.03Q36.22 7.39 36.23 7.76L36.23 7.76L36.23 7.76Q36.23 8.13 36.11 8.36L36.11 8.36L36.11 8.36Q35.87 8.01 35.43 7.89L35.43 7.89L35.43 7.89Q35 7.77 34.59 7.77L34.59 7.77L34.59 7.77Q33.95 7.77 33.52 8.09L33.52 8.09L33.52 8.09Q33.08 8.40 32.86 8.88L32.86 8.88L32.86 8.88Q32.63 9.35 32.63 9.91L32.63 9.91L32.63 9.91Q32.62 10.46 32.84 10.93L32.84 10.93L32.84 10.93Q33.05 11.41 33.49 11.73L33.49 11.73L33.49 11.73Q33.94 12.04 34.59 12.04L34.59 12.04L34.59 12.04Q35.15 12.04 35.52 11.79L35.52 11.79L35.52 11.79Q35.88 11.54 36.10 11.14L36.10 11.14L36.10 11.14Q36.32 10.74 36.41 10.24L36.41 10.24L36.41 10.24Q36.50 9.74 36.50 9.25L36.50 9.25L36.50 7.04L36.50 6.27L38.32 6.27L38.32 13.52L36.50 13.52ZM45.36 8.96L45.36 8.96L45.36 8.96Q45.25 8.57 44.93 8.30L44.93 8.30L44.93 8.30Q44.62 8.04 44.20 7.90L44.20 7.90L44.20 7.90Q43.78 7.77 43.30 7.78L43.30 7.78L43.30 7.78Q42.83 7.78 42.40 7.97L42.40 7.97L42.40 7.97Q41.97 8.15 41.65 8.51L41.65 8.51L41.65 8.51Q41.33 8.86 41.20 9.41L41.20 9.41L41.20 9.41Q41.10 9.86 41.17 10.32L41.17 10.32L41.17 10.32Q41.24 10.78 41.50 11.15L41.50 11.15L41.50 11.15Q41.75 11.52 42.17 11.76L42.17 11.76L42.17 11.76Q42.60 12.00 43.20 12.00L43.20 12.00L43.20 12.00Q44.34 12.00 44.97 11.17L44.97 11.17L46.30 12.14L46.30 12.14Q45.23 13.64 43.23 13.64L43.23 13.64L43.23 13.64Q42.18 13.64 41.42 13.24L41.42 13.24L41.42 13.24Q40.66 12.84 40.18 12.20L40.18 12.20L40.18 12.20Q39.70 11.56 39.54 10.77L39.54 10.77L39.54 10.77Q39.37 9.98 39.50 9.21L39.50 9.21L39.50 9.21Q39.63 8.43 40.08 7.74L40.08 7.74L40.08 7.74Q40.53 7.04 41.30 6.61L41.30 6.61L41.30 6.61Q41.87 6.29 42.52 6.17L42.52 6.17L42.52 6.17Q43.18 6.05 43.83 6.15L43.83 6.15L43.83 6.15Q44.70 6.27 45.19 6.66L45.19 6.66L45.19 6.66Q45.67 7.06 45.82 7.51L45.82 7.51L45.82 7.51Q45.98 7.97 45.84 8.38L45.84 8.38L45.84 8.38Q45.71 8.79 45.36 8.96ZM52.36 10.72L52.36 10.72L52.36 10.72Q51.60 10.92 50.98 10.86L50.98 10.86L50.98 10.86Q50.36 10.81 49.96 10.56L49.96 10.56L49.96 10.56Q49.56 10.32 49.43 9.91L49.43 9.91L49.43 9.91Q49.29 9.49 49.50 8.97L49.50 8.97L49.50 8.97Q49.94 9.34 50.51 9.37L50.51 9.37L50.51 9.37Q51.09 9.41 51.62 9.35L51.62 9.35L51.62 9.35Q52.07 9.31 52.30 9.16L52.30 9.16L52.30 9.16Q52.53 9.00 52.58 8.80L52.58 8.80L52.58 8.80Q52.64 8.60 52.54 8.37L52.54 8.37L52.54 8.37Q52.44 8.15 52.23 7.97L52.23 7.97L52.23 7.97Q52.01 7.78 51.70 7.67L51.70 7.67L51.70 7.67Q51.38 7.56 51.00 7.57L51.00 7.57L51.00 7.57Q50.60 7.60 50.23 7.77L50.23 7.77L50.23 7.77Q49.87 7.94 49.59 8.23L49.59 8.23L49.59 8.23Q49.31 8.53 49.14 8.92L49.14 8.92L49.14 8.92Q48.97 9.31 48.96 9.79L48.96 9.79L48.96 9.79Q48.94 10.18 49.05 10.56L49.05 10.56L49.05 10.56Q49.15 10.93 49.36 11.25L49.36 11.25L49.36 11.25Q49.57 11.56 49.87 11.78L49.87 11.78L49.87 11.78Q50.16 12.00 50.54 12.05L50.54 12.05L50.54 12.05Q51.07 12.15 51.63 11.98L51.63 11.98L51.63 11.98Q52.19 11.82 52.63 11.37L52.63 11.37L54.10 12.08L54.10 12.08Q53.52 12.94 52.74 13.31L52.74 13.31L52.74 13.31Q51.95 13.68 50.95 13.68L50.95 13.68L50.95 13.68Q50.01 13.68 49.30 13.35L49.30 13.35L49.30 13.35Q48.59 13.02 48.13 12.47L48.13 12.47L48.13 12.47Q47.66 11.93 47.43 11.24L47.43 11.24L47.43 11.24Q47.19 10.54 47.21 9.82L47.21 9.82L47.21 9.82Q47.22 9.10 47.49 8.41L47.49 8.41L47.49 8.41Q47.75 7.71 48.26 7.18L48.26 7.18L48.26 7.18Q48.82 6.58 49.57 6.33L49.57 6.33L49.57 6.33Q50.32 6.08 51.10 6.08L51.10 6.08L51.10 6.08Q51.97 6.08 52.60 6.37L52.60 6.37L52.60 6.37Q53.23 6.66 53.62 7.12L53.62 7.12L53.62 7.12Q54.01 7.57 54.14 8.13L54.14 8.13L54.14 8.13Q54.26 8.68 54.12 9.20L54.12 9.20L54.12 9.20Q53.97 9.72 53.54 10.13L53.54 10.13L53.54 10.13Q53.10 10.54 52.36 10.72Z"></path></g><!----><!----></svg>